<svg width="80" height="80" viewBox="0 0 80 80" fill="none" xmlns="http://www.w3.org/2000/svg">
<g clip-path="url(#clip0)">
<path d="M42.3438 11.875V20.6875C42.3438 21.9533 41.3127 23.0312 40 23.0312C38.6873 23.0312 37.6562 21.9533 37.6562 20.6875V11.875C37.6562 10.5623 38.6873 9.53125 40 9.53125C41.3127 9.53125 42.3438 10.5623 42.3438 11.875Z" fill="#7D92E1" fill-opacity="0.5"/>
<path d="M42.3438 11.875V20.6875C42.3438 21.9533 41.3127 23.0312 40 23.0312V9.53125C41.3127 9.53125 42.3438 10.5623 42.3438 11.875Z" fill="#7D92E1"/>
<path d="M68.1235 42.3438C66.8281 42.3438 65.7798 41.2955 65.7798 40V32.9688H49.9434C48.6479 32.9688 47.5996 31.9205 47.5996 30.625C47.5996 29.3295 48.6479 28.2812 49.9434 28.2812H68.1235C69.419 28.2812 70.4673 29.3295 70.4673 30.625V40C70.4673 41.2955 69.419 42.3438 68.1235 42.3438Z" fill="#7D92E1"/>
<path d="M11.875 42.3438C10.5795 42.3438 9.53125 41.2955 9.53125 40V30.625C9.53125 29.3295 10.5795 28.2812 11.875 28.2812H30.0552C31.3506 28.2812 32.3989 29.3295 32.3989 30.625C32.3989 31.9205 31.3506 32.9688 30.0552 32.9688H14.2187V40C14.2187 41.2955 13.1705 42.3438 11.875 42.3438Z" fill="#7D92E1" fill-opacity="0.5"/>
<path d="M42.3438 58.75V68.125C42.3438 69.4377 41.3127 70.4688 40 70.4688C38.6873 70.4688 37.6562 69.4377 37.6562 68.125V58.75C37.6562 57.4373 38.6873 56.4062 40 56.4062C41.3127 56.4062 42.3438 57.4373 42.3438 58.75Z" fill="#7D92E1" fill-opacity="0.5"/>
<path d="M42.3438 58.75V68.125C42.3438 69.4377 41.3127 70.4688 40 70.4688V56.4062C41.3127 56.4062 42.3438 57.4373 42.3438 58.75Z" fill="#7D92E1"/>
<path d="M70.4688 49.375V58.75C70.4688 60.0627 69.4377 61.0938 68.125 61.0938H11.875C10.5623 61.0938 9.53125 60.0627 9.53125 58.75V49.375C9.53125 48.0623 10.5623 47.0312 11.875 47.0312C13.1877 47.0312 14.2188 48.0623 14.2188 49.375V56.4062H65.7812V49.375C65.7812 48.0623 66.8123 47.0312 68.125 47.0312C69.4377 47.0312 70.4688 48.0623 70.4688 49.375Z" fill="#7D92E1" fill-opacity="0.5"/>
<path d="M70.4688 49.375V58.75C70.4688 60.0627 69.4377 61.0938 68.125 61.0938H40V56.4062H65.7812V49.375C65.7812 48.0623 66.8123 47.0312 68.125 47.0312C69.4377 47.0312 70.4688 48.0623 70.4688 49.375Z" fill="#7D92E1"/>
<path d="M49.0938 0H30.3438C29.0311 0 28 1.03109 28 2.34375V11.875C28 13.1877 29.0311 14.2188 30.3438 14.2188H49.0938C50.4064 14.2188 51.4375 13.1877 51.4375 11.875V2.34375C51.4375 1.03109 50.4064 0 49.0938 0Z" fill="url(#paint0_linear)"/>
<path d="M49.375 65.7812H30.625C29.3123 65.7812 28.2812 66.8123 28.2812 68.125V77.6562C28.2812 78.9689 29.3123 80 30.625 80H49.375C50.6877 80 51.7188 78.9689 51.7188 77.6562V68.125C51.7188 66.8123 50.6877 65.7812 49.375 65.7812Z" fill="url(#paint1_linear)"/>
<path d="M77.6562 51.7188H58.75C57.4545 51.7188 56.4062 50.6705 56.4062 49.375V40C56.4062 38.7045 57.4545 37.6562 58.75 37.6562H77.6562C78.9517 37.6562 80 38.7045 80 40V49.375C80 50.6705 78.9517 51.7188 77.6562 51.7188Z" fill="url(#paint2_linear)"/>
<path d="M21.25 51.7188H2.34375C1.04828 51.7188 0 50.6705 0 49.375V40C0 38.7045 1.04828 37.6562 2.34375 37.6562H21.25C22.5455 37.6562 23.5938 38.7045 23.5938 40V49.375C23.5938 50.6705 22.5455 51.7188 21.25 51.7188Z" fill="url(#paint3_linear)"/>
<path d="M51.6266 28.9846L41.6423 19.0002C41.2205 18.5313 40.6112 18.344 40.0018 18.344C39.3924 18.344 38.783 18.5313 38.3613 19.0002L28.377 28.9846C27.4863 29.8752 27.4863 31.3749 28.377 32.2657L38.3613 42.2501C38.783 42.6721 39.3924 42.9063 40.0018 42.9063C40.6112 42.9063 41.2205 42.672 41.6423 42.2501L51.6266 32.2657C52.5173 31.3749 52.5173 29.8752 51.6266 28.9846Z" fill="url(#paint4_linear)"/>
<path d="M30.625 8.19589e-07L40 0L40 14.2188L30.625 14.2188C29.3123 14.2188 28.2812 13.1877 28.2812 11.875L28.2812 2.34375C28.2812 1.03109 29.3123 9.34345e-07 30.625 8.19589e-07Z" fill="#06BEE1"/>
<path d="M51.7188 68.125V77.6562C51.7188 78.9689 50.6877 80 49.375 80H40V65.7812H49.375C50.6877 65.7812 51.7188 66.8123 51.7188 68.125Z" fill="#06BEE1"/>
<path d="M41.6405 42.25C41.2187 42.672 40.6094 42.9062 40 42.9062V18.3439C40.6094 18.3439 41.2187 18.5312 41.6405 19.0001L51.6248 28.9845C52.5155 29.8751 52.5155 31.3748 51.6248 32.2656L41.6405 42.25Z" fill="#F25C05"/>
</g>
<defs>
<linearGradient id="paint0_linear" x1="28" y1="0" x2="53.2153" y2="16.4367" gradientUnits="userSpaceOnUse">
<stop stop-color="#06BEE1"/>
<stop offset="1" stop-color="#06BEE1" stop-opacity="0"/>
</linearGradient>
<linearGradient id="paint1_linear" x1="51.7188" y1="66.1288" x2="27.5434" y2="85.4268" gradientUnits="userSpaceOnUse">
<stop stop-color="#06BEE1"/>
<stop offset="1" stop-color="#06BEE1" stop-opacity="0"/>
</linearGradient>
<linearGradient id="paint2_linear" x1="80" y1="38" x2="56" y2="57.5" gradientUnits="userSpaceOnUse">
<stop stop-color="#06BEE1"/>
<stop offset="1" stop-color="#06BEE1" stop-opacity="0"/>
</linearGradient>
<linearGradient id="paint3_linear" x1="23.5938" y1="38" x2="-0.406249" y2="57.5" gradientUnits="userSpaceOnUse">
<stop stop-color="#06BEE1"/>
<stop offset="1" stop-color="#06BEE1" stop-opacity="0"/>
</linearGradient>
<linearGradient id="paint4_linear" x1="40" y1="18" x2="40" y2="48" gradientUnits="userSpaceOnUse">
<stop stop-color="#F25C05"/>
<stop offset="1" stop-color="#F25C05" stop-opacity="0"/>
</linearGradient>
<clipPath id="clip0">
<rect width="80" height="80" fill="white"/>
</clipPath>
</defs>
</svg>
