<svg width="80" height="80" viewBox="0 0 80 80" fill="none" xmlns="http://www.w3.org/2000/svg">
<g clip-path="url(#clip0)">
<path d="M3.80999 79.8438H47.6479C48.9553 79.8438 49.8324 78.4961 49.2989 77.3016C48.3315 75.1367 46.2392 73.5846 43.7642 73.3875C43.7667 73.3246 43.7691 73.2617 43.7691 73.1982C43.7691 70.6067 41.6689 68.5059 39.0773 68.5059C37.9384 68.5059 36.8941 68.9117 36.0817 69.5868C35.3231 70.2167 35 70.592 34 71C32.6383 71.0024 31.5 71.3611 31.5 70L38.8376 58.0798H28.6203L22.5 68.5C21 70 19.5156 70.5945 18.1539 70.592H18.0587C17.0723 70.592 16.1348 70.2167 15.3762 69.5868C14.5638 68.9117 13.5195 68.5059 12.3806 68.5059C9.789 68.5059 7.68878 70.6067 7.68878 73.1982C7.68878 73.2617 7.69061 73.3246 7.69366 73.3875C5.21868 73.5846 3.1264 75.1367 2.15899 77.3016C1.62493 78.4961 2.50201 79.8438 3.80999 79.8438Z" fill="url(#paint0_linear)"/>
<path d="M26.8474 58.8979L11.6549 50.2331C10.1886 49.3968 9.75761 47.3905 10.6925 45.7513L16.0538 36.3511C16.5738 35.4394 17.4391 34.7928 18.4011 34.5957L43.6521 29.4334L26.8474 58.8979Z" fill="url(#paint1_linear)"/>
<path d="M44.5625 68.9994L59.7551 77.6643C61.2214 78.5006 63.1676 77.8501 64.1025 76.211L69.4638 66.8107C69.9838 65.899 70.0998 64.825 69.779 63.8964L61.3672 39.5349L44.5625 68.9994Z" fill="url(#paint2_linear)"/>
<path d="M51.0079 69.9221L22.7706 53.8174L44.0235 16.5537C48.674 8.39965 56.4549 2.50016 65.5618 0.225218C69.7923 -0.832358 74.1052 1.62745 75.3487 5.80706C78.027 14.8035 76.9113 24.5044 72.2607 32.6584L51.0079 69.9221Z" fill="url(#paint3_linear)"/>
<path d="M60.5551 20.3832C56.402 18.0144 51.115 19.461 48.7467 23.6135C46.378 27.7666 47.8246 33.0535 51.9778 35.4223C56.1304 37.7906 61.418 36.3445 63.7866 32.1913C66.155 28.0388 64.7077 22.7515 60.5551 20.3832Z" fill="url(#paint4_linear)"/>
<path d="M58.7495 23.5566C56.4413 22.2402 53.5032 23.0441 52.1872 25.3516C50.8707 27.6598 51.6746 30.5978 53.9828 31.9143C56.2903 33.2303 59.2291 32.4269 60.5455 30.1187C61.8616 27.8112 61.057 24.8727 58.7495 23.5566Z" fill="url(#paint5_linear)"/>
<path d="M56.84 59.7066L51.0133 69.9228L39.9821 63.6312L36.4704 50.7963C35.7591 48.5679 35.9458 46.0609 37.1955 43.8697C39.5638 39.7172 44.8511 38.27 49.0042 40.6387C51.1954 41.8884 52.6316 43.9523 53.1546 46.2312L56.84 59.7066Z" fill="url(#paint6_linear)"/>
<path d="M49.0044 40.6393C44.8512 38.2705 39.5642 39.717 37.1959 43.8695C34.8273 48.0225 36.274 53.3094 40.4271 55.6781C44.5797 58.0465 49.8673 56.6004 52.2359 52.4473C54.6042 48.2949 53.1569 43.0076 49.0044 40.6393Z" fill="url(#paint7_linear)"/>
<path d="M47.1085 43.9685C44.8005 42.6522 41.8626 43.4562 40.5465 45.7637C39.2301 48.0719 40.0338 51.0099 42.3418 52.3262C44.6491 53.6421 47.5878 52.8386 48.9042 50.5304C50.2203 48.2229 49.4158 45.2845 47.1085 43.9685Z" fill="url(#paint8_linear)"/>
<path d="M75.3509 5.80768C74.1073 1.62807 69.7944 -0.831763 65.5639 0.225781C60.6789 1.44652 56.1757 3.71039 52.3318 6.80545C55.4974 9.65642 59.3373 12.4361 63.6747 14.9098C68.0115 17.3833 72.3589 19.2731 76.4243 20.5463C77.1313 15.6622 76.7878 10.634 75.3509 5.80768Z" fill="url(#paint9_linear)"/>
<path d="M23.9961 51.6685L20.2294 58.2729C19.7959 59.0329 20.0605 60.0002 20.82 60.4333L46.3058 74.9688C47.0659 75.4023 48.0331 75.1377 48.4666 74.3776L52.2333 67.7732L23.9961 51.6685Z" fill="#06BEE1"/>
</g>
<defs>
<linearGradient id="paint0_linear" x1="6.98031" y1="64.782" x2="40.8728" y2="74.7504" gradientUnits="userSpaceOnUse">
<stop stop-color="#A2B4FF"/>
<stop offset="0.567708" stop-color="#A1B4FF" stop-opacity="0.3"/>
<stop offset="1" stop-color="#A1B4FF" stop-opacity="0"/>
</linearGradient>
<linearGradient id="paint1_linear" x1="46.0481" y1="28.4559" x2="37.9639" y2="66.4295" gradientUnits="userSpaceOnUse">
<stop stop-color="#2846C0" stop-opacity="0"/>
<stop offset="0.489583" stop-color="#2846C0" stop-opacity="0.4"/>
<stop offset="1" stop-color="#2846C0"/>
</linearGradient>
<linearGradient id="paint2_linear" x1="81.6108" y1="48.7365" x2="73.5265" y2="86.7101" gradientUnits="userSpaceOnUse">
<stop stop-color="#2846C0" stop-opacity="0"/>
<stop offset="0.489583" stop-color="#2846C0" stop-opacity="0.4"/>
<stop offset="1" stop-color="#2846C0"/>
</linearGradient>
<linearGradient id="paint3_linear" x1="63.0893" y1="-27.7512" x2="42.7485" y2="88.771" gradientUnits="userSpaceOnUse">
<stop stop-color="#F1F4FC"/>
<stop offset="0.333333" stop-color="#F3F6FD" stop-opacity="0.4"/>
<stop offset="0.635417" stop-color="#F1F4FC" stop-opacity="0.6"/>
<stop offset="1" stop-color="#F2F5FD" stop-opacity="0"/>
</linearGradient>
<linearGradient id="paint4_linear" x1="57.8353" y1="38.7977" x2="53.8366" y2="17.9853" gradientUnits="userSpaceOnUse">
<stop stop-color="#F25C05"/>
<stop offset="1" stop-color="#FFC8A8" stop-opacity="0"/>
</linearGradient>
<linearGradient id="paint5_linear" x1="56.7505" y1="35.0904" x2="57.4734" y2="21.1248" gradientUnits="userSpaceOnUse">
<stop stop-color="#DD5100" stop-opacity="0"/>
<stop offset="1" stop-color="#AE00A7" stop-opacity="0.7"/>
</linearGradient>
<linearGradient id="paint6_linear" x1="49.2756" y1="64.8265" x2="39.9703" y2="30.8179" gradientUnits="userSpaceOnUse">
<stop stop-color="#A1B5D8" stop-opacity="0"/>
<stop offset="0.3862" stop-color="#8C9DB6" stop-opacity="0.384314"/>
<stop offset="0.7742" stop-color="#7A899A" stop-opacity="0.772549"/>
<stop offset="1" stop-color="#748290"/>
</linearGradient>
<linearGradient id="paint7_linear" x1="46.2847" y1="59.0535" x2="42.2861" y2="38.2413" gradientUnits="userSpaceOnUse">
<stop stop-color="#F25C05"/>
<stop offset="1" stop-color="#FFC8A8"/>
</linearGradient>
<linearGradient id="paint8_linear" x1="45.1093" y1="55.5021" x2="45.8317" y2="41.5368" gradientUnits="userSpaceOnUse">
<stop stop-color="#DD5100" stop-opacity="0"/>
<stop offset="1" stop-color="#AE00A7" stop-opacity="0.7"/>
</linearGradient>
<linearGradient id="paint9_linear" x1="63.3866" y1="-3.61901" x2="72.3627" y2="27.7003" gradientUnits="userSpaceOnUse">
<stop stop-color="#06BEE1" stop-opacity="0"/>
<stop offset="0.661458" stop-color="#06BEE1" stop-opacity="0.4"/>
<stop offset="1" stop-color="#06BEE1"/>
</linearGradient>
<clipPath id="clip0">
<rect width="80" height="80" fill="white"/>
</clipPath>
</defs>
</svg>
