<svg fill="none" height="2526" viewBox="0 0 2482 2526" width="2482" xmlns="http://www.w3.org/2000/svg" xmlns:xlink="http://www.w3.org/1999/xlink"><filter id="a" color-interpolation-filters="sRGB" filterUnits="userSpaceOnUse" height="484.074" width="484.074" x="1081" y="0"><feFlood flood-opacity="0" result="BackgroundImageFix"/><feColorMatrix in="SourceAlpha" type="matrix" values="0 0 0 0 0 0 0 0 0 0 0 0 0 0 0 0 0 0 127 0"/><feOffset dy="4"/><feGaussianBlur stdDeviation="50"/><feColorMatrix type="matrix" values="0 0 0 0 0.0117647 0 0 0 0 0.145098 0 0 0 0 0.423529 0 0 0 0.1 0"/><feBlend in2="BackgroundImageFix" mode="normal" result="effect1_dropShadow"/><feBlend in="SourceGraphic" in2="effect1_dropShadow" mode="normal" result="shape"/></filter><filter id="b" color-interpolation-filters="sRGB" filterUnits="userSpaceOnUse" height="424" width="423" x="1155" y="238"><feFlood flood-opacity="0" result="BackgroundImageFix"/><feColorMatrix in="SourceAlpha" type="matrix" values="0 0 0 0 0 0 0 0 0 0 0 0 0 0 0 0 0 0 127 0"/><feOffset dy="4"/><feGaussianBlur stdDeviation="50"/><feColorMatrix type="matrix" values="0 0 0 0 0.0117647 0 0 0 0 0.145098 0 0 0 0 0.423529 0 0 0 0.1 0"/><feBlend in2="BackgroundImageFix" mode="normal" result="effect1_dropShadow"/><feBlend in="SourceGraphic" in2="effect1_dropShadow" mode="normal" result="shape"/></filter><filter id="c" color-interpolation-filters="sRGB" filterUnits="userSpaceOnUse" height="566" width="567" x="812" y="223"><feFlood flood-opacity="0" result="BackgroundImageFix"/><feColorMatrix in="SourceAlpha" type="matrix" values="0 0 0 0 0 0 0 0 0 0 0 0 0 0 0 0 0 0 127 0"/><feOffset dy="4"/><feGaussianBlur stdDeviation="50"/><feColorMatrix type="matrix" values="0 0 0 0 0.0117647 0 0 0 0 0.145098 0 0 0 0 0.423529 0 0 0 0.1 0"/><feBlend in2="BackgroundImageFix" mode="normal" result="effect1_dropShadow"/><feBlend in="SourceGraphic" in2="effect1_dropShadow" mode="normal" result="shape"/></filter><linearGradient id="d"><stop offset="0" stop-color="#fff"/><stop offset="1" stop-color="#e9eefa"/></linearGradient><linearGradient id="e" gradientUnits="userSpaceOnUse" x1="1007.5" x2="240.236" xlink:href="#d" y1="2270.62" y2="1306.38"/><linearGradient id="f"><stop offset="0" stop-color="#f6f7fb"/><stop offset="1" stop-color="#e9eefa"/></linearGradient><linearGradient id="g" gradientUnits="userSpaceOnUse" x1="1181" x2="1181" xlink:href="#f" y1="96" y2="380.074"/><linearGradient id="h" gradientUnits="userSpaceOnUse" x1="1255" x2="1255" xlink:href="#f" y1="334" y2="558"/><linearGradient id="i" gradientUnits="userSpaceOnUse" x1="1352.5" x2="1187.38" xlink:href="#d" y1="2423.5" y2="1357.44"/><linearGradient id="j" gradientUnits="userSpaceOnUse" x1="912" x2="912" xlink:href="#f" y1="319" y2="685"/><path clip-rule="evenodd" d="m649 1034c-358.433 0-649 300.64-649 671.5s290.567 671.5 649 671.5c358.43 0 649-300.64 649-671.5s-290.57-671.5-649-671.5z" fill="url(#e)" fill-rule="evenodd"/><g fill="#2846c0"><circle cx="822" cy="1123" r="547"/><circle cx="1584" cy="1096" r="607"/><circle cx="2029.5" cy="869.5" r="452.5"/></g><g filter="url(#a)"><path clip-rule="evenodd" d="m1323.04 380.074c78.44 0 142.03-63.592 142.03-142.037s-63.59-142.037-142.03-142.037c-78.45 0-142.04 63.592-142.04 142.037s63.59 142.037 142.04 142.037z" fill="url(#g)" fill-rule="evenodd"/></g><g filter="url(#b)"><path clip-rule="evenodd" d="m1366.88 334c61.53.21 111.26 50.448 111.12 112.255s-50.1 111.816-111.63 111.745c-61.53-.072-111.37-50.197-111.37-112.004.11-61.96 50.2-112.101 111.88-111.996z" fill="url(#h)" fill-rule="evenodd"/></g><path clip-rule="evenodd" d="m1617 1183c-358.43 0-649 300.64-649 671.5s290.57 671.5 649 671.5 649-300.64 649-671.5-290.57-671.5-649-671.5z" fill="url(#i)" fill-rule="evenodd"/><g filter="url(#c)"><path clip-rule="evenodd" d="m1095.5 685c101.34 0 183.5-81.932 183.5-183s-82.16-183-183.5-183c-101.344 0-183.5 81.932-183.5 183s82.156 183 183.5 183z" fill="url(#j)" fill-rule="evenodd"/></g></svg>